<svg width="639" height="146" viewBox="0 0 639 146" fill="none" xmlns="http://www.w3.org/2000/svg">
<path fill-rule="evenodd" clip-rule="evenodd" d="M357.005 34.3975C355.182 34.3975 353.643 35.0238 352.39 36.278C351.136 37.5309 350.51 39.0696 350.51 40.8924V80.0367C350.51 88.6978 346.122 93.0284 337.348 93.0284C328.687 93.0284 324.356 88.6978 324.356 80.0367V40.8924C324.356 39.0696 323.73 37.5309 322.476 36.278C321.223 35.0238 319.684 34.3975 317.861 34.3975C316.038 34.3975 314.499 35.0238 313.246 36.278C311.992 37.5309 311.365 39.0696 311.365 40.8924V80.0367C311.365 87.672 313.787 93.9112 318.63 98.7546C323.473 103.597 329.712 106.019 337.348 106.019C342.248 106.019 346.635 104.993 350.51 102.942V119.181C350.51 123.17 349.313 126.332 346.92 128.668C344.527 131.004 341.336 132.172 337.348 132.172C328.801 132.172 324.47 127.785 324.356 119.01C324.356 117.301 323.701 115.819 322.39 114.565C321.08 113.313 319.57 112.685 317.861 112.685C316.038 112.685 314.499 113.313 313.246 114.565C311.992 115.819 311.365 117.357 311.365 119.181C311.365 126.816 313.787 133.056 318.63 137.898C323.473 142.742 329.712 145.163 337.348 145.163C344.868 145.163 351.108 142.713 356.065 137.813C361.022 132.913 363.5 126.702 363.5 119.181V40.8924C363.5 39.1831 362.845 37.6736 361.535 36.363C360.224 35.0523 358.715 34.3975 357.005 34.3975Z" fill="#D74248"/>
<path fill-rule="evenodd" clip-rule="evenodd" d="M252.988 61.2165V119.847C252.988 121.67 253.615 123.209 254.869 124.462C256.122 125.716 257.66 126.342 259.484 126.342C261.307 126.342 262.846 125.716 264.099 124.462C265.352 123.209 265.979 121.67 265.979 119.847V61.2165C265.979 57.2275 267.148 54.0655 269.483 51.729C271.82 49.3925 274.982 48.2249 278.971 48.2249C287.745 48.2249 292.133 52.6122 292.133 61.3868C292.133 65.3755 290.936 68.5375 288.543 70.874C286.15 73.2096 282.958 74.3785 278.971 74.3785C277.147 74.3785 275.609 75.0048 274.355 76.2587C273.101 77.5119 272.475 79.0506 272.475 80.8734C272.475 82.5833 273.131 84.0928 274.44 85.4034C275.751 86.7141 277.261 87.3692 278.971 87.3692C287.745 87.5972 292.133 91.9278 292.133 100.361V139.334C292.133 141.157 292.759 142.724 294.013 144.034C295.266 145.345 296.805 146 298.628 146C300.451 146 301.99 145.345 303.243 144.034C304.497 142.724 305.123 141.157 305.123 139.334V100.361C305.123 92.1558 302.331 85.66 296.748 80.8734C302.331 75.6314 305.123 69.0788 305.123 61.2165C305.123 53.6948 302.645 47.4847 297.688 42.5843C292.731 37.6842 286.491 35.2341 278.971 35.2341C271.335 35.2341 265.096 37.6556 260.253 42.4984C255.41 47.3417 252.988 53.5813 252.988 61.2165Z" fill="#D74248"/>
<path fill-rule="evenodd" clip-rule="evenodd" d="M194.367 61.2165V119.847C194.367 121.67 194.994 123.209 196.248 124.462C197.501 125.716 199.039 126.342 200.863 126.342C202.686 126.342 204.224 125.716 205.478 124.462C206.732 123.209 207.358 121.67 207.358 119.847V61.2165C207.358 57.2275 208.527 54.0655 210.862 51.729C213.199 49.3925 216.361 48.2249 220.35 48.2249C229.124 48.2249 233.512 52.6122 233.512 61.3868C233.512 65.3755 232.315 68.5375 229.922 70.874C227.529 73.2096 224.338 74.3785 220.35 74.3785C218.526 74.3785 216.988 75.0048 215.734 76.2587C214.48 77.5119 213.854 79.0506 213.854 80.8734C213.854 82.5833 214.51 84.0928 215.819 85.4034C217.13 86.7141 218.64 87.3692 220.35 87.3692C229.124 87.5972 233.512 91.9278 233.512 100.361V139.334C233.512 141.157 234.138 142.724 235.392 144.034C236.645 145.345 238.184 146 240.007 146C241.83 146 243.369 145.345 244.622 144.034C245.876 142.724 246.502 141.157 246.502 139.334V100.361C246.502 92.1558 243.71 85.66 238.127 80.8734C243.71 75.6314 246.502 69.0788 246.502 61.2165C246.502 53.6948 244.024 47.4847 239.067 42.5843C234.11 37.6842 227.87 35.2341 220.35 35.2341C212.714 35.2341 206.475 37.6556 201.632 42.4984C196.789 47.3417 194.367 53.5813 194.367 61.2165Z" fill="#D74248"/>
<path fill-rule="evenodd" clip-rule="evenodd" d="M135.727 61.3877V100.532C135.727 108.167 138.148 114.407 142.992 119.249C147.834 124.093 154.074 126.514 161.709 126.514C169.23 126.514 175.469 124.064 180.426 119.164C185.383 114.264 187.862 108.053 187.862 100.532C187.862 98.7083 187.235 97.1706 185.981 95.9164C184.728 94.6634 183.19 94.0362 181.367 94.0362C177.15 94.0362 174.984 96.1447 174.871 100.361C174.643 109.136 170.256 113.523 161.709 113.523C153.048 113.523 148.717 109.136 148.717 100.361V61.3877C148.717 52.7275 153.048 48.3969 161.709 48.3969C170.484 48.3969 174.871 52.7275 174.871 61.3877V67.1992L158.803 75.0624C156.41 76.2018 155.213 78.1391 155.213 80.8742C155.213 82.6976 155.84 84.2366 157.094 85.4895C158.348 86.7434 159.886 87.37 161.709 87.37C162.735 87.37 163.703 87.1417 164.614 86.6866L184.272 76.9429C186.665 75.8035 187.862 73.8662 187.862 71.1314V61.3877C187.862 53.8669 185.383 47.6558 180.426 42.7557C175.469 37.8553 169.23 35.4053 161.709 35.4053C154.074 35.4053 147.834 37.8271 142.992 42.6704C138.148 47.5137 135.727 53.7524 135.727 61.3877Z" fill="#D74248"/>
<path fill-rule="evenodd" clip-rule="evenodd" d="M103.088 35.4059C98.301 35.4059 93.9714 36.4318 90.0962 38.4835V22.2439C90.0962 20.4211 89.4696 18.8825 88.2166 17.6295C86.9627 16.3757 85.4238 15.749 83.6013 15.749C81.7776 15.749 80.2389 16.3757 78.9857 17.6295C77.7318 18.8825 77.1055 20.4211 77.1055 22.2439V120.019C77.1055 121.843 77.7318 123.382 78.9857 124.635C80.2389 125.888 81.7776 126.515 83.6013 126.515C85.4238 126.515 86.9627 125.888 88.2166 124.635C89.4696 123.382 90.0962 121.843 90.0962 120.019V61.3883C90.0962 52.7281 94.4267 48.3976 103.088 48.3976C111.862 48.3976 116.25 52.7281 116.25 61.3883V120.019C116.25 121.843 116.876 123.382 118.13 124.635C119.383 125.888 120.922 126.515 122.745 126.515C124.568 126.515 126.107 125.888 127.36 124.635C128.614 123.382 129.241 121.843 129.241 120.019V61.3883C129.241 53.8675 126.762 47.6565 121.805 42.7564C116.848 37.856 110.608 35.4059 103.088 35.4059Z" fill="#D74248"/>
<path fill-rule="evenodd" clip-rule="evenodd" d="M18.4609 41.9017V100.533C18.4609 108.168 20.8828 114.407 25.7261 119.25C30.5688 124.093 36.8081 126.515 44.4433 126.515C51.9641 126.515 58.2034 124.065 63.1603 119.165C68.1174 114.264 70.596 108.054 70.596 100.533C70.596 98.7089 69.9694 97.1712 68.7155 95.917C67.4626 94.6641 65.9239 94.0368 64.1011 94.0368C59.8841 94.0368 57.7188 96.1453 57.6053 100.362C57.3773 109.137 52.99 113.524 44.4433 113.524C35.7822 113.524 31.4517 109.137 31.4517 100.362V41.9017C31.4517 33.2415 35.7822 28.911 44.4433 28.911C53.218 28.911 57.6053 33.2415 57.6053 41.9017V61.3883C57.6053 63.2117 58.2316 64.7507 59.4858 66.0036C60.7387 67.2575 62.2774 67.8841 64.1011 67.8841C65.9239 67.8841 67.4626 67.2575 68.7155 66.0036C69.9694 64.7507 70.596 63.2117 70.596 61.3883V41.9017C70.596 34.381 68.1174 28.1417 63.1603 23.1845C58.2034 18.2276 51.9641 15.749 44.4433 15.749C36.9216 15.749 30.7115 18.2276 25.8114 23.1845C20.911 28.1417 18.4609 34.381 18.4609 41.9017Z" fill="#D74248"/>
<path fill-rule="evenodd" clip-rule="evenodd" d="M436.879 35.4057C428.674 35.4057 422.178 38.1982 417.392 43.7821C412.605 38.1982 406.053 35.4057 397.734 35.4057C390.099 35.4057 383.86 37.8275 379.017 42.6709C374.174 47.5142 371.752 53.7529 371.752 61.3881V120.019C371.752 121.842 372.379 123.381 373.632 124.634C374.885 125.888 376.424 126.515 378.248 126.515C380.071 126.515 381.609 125.888 382.863 124.634C384.116 123.381 384.743 121.842 384.743 120.019V61.3881C384.743 52.7279 389.073 48.3974 397.734 48.3974C406.509 48.3974 410.896 52.7279 410.896 61.3881V120.019C410.896 121.842 411.523 123.381 412.777 124.634C414.03 125.888 415.568 126.515 417.392 126.515C419.215 126.515 420.754 125.888 422.007 124.634C423.26 123.381 423.887 121.842 423.887 120.019V61.3881C423.887 52.7279 428.218 48.3974 436.879 48.3974C445.539 48.3974 449.869 52.7279 449.869 61.3881V120.019C449.869 121.842 450.496 123.381 451.75 124.634C453.003 125.888 454.542 126.515 456.365 126.515C458.189 126.515 459.727 125.888 460.981 124.634C462.234 123.381 462.861 121.842 462.861 120.019V61.3881C462.861 53.7529 460.439 47.5142 455.596 42.6709C450.752 37.8275 444.514 35.4057 436.879 35.4057ZM514.996 35.4057C513.172 35.4057 511.634 36.033 510.381 37.2862C509.127 38.5401 508.5 40.0778 508.5 41.9016V100.532C508.5 104.521 507.304 107.683 504.911 110.02C502.517 112.355 499.326 113.524 495.338 113.524C486.677 113.524 482.347 109.136 482.347 100.362V41.9016C482.347 40.0778 481.72 38.5401 480.467 37.2862C479.213 36.033 477.674 35.4057 475.852 35.4057C474.028 35.4057 472.489 36.033 471.236 37.2862C469.982 38.5401 469.356 40.0778 469.356 41.9016V100.532C469.356 108.168 471.778 114.407 476.621 119.249C481.464 124.093 487.703 126.515 495.338 126.515C500.58 126.515 505.195 125.318 509.183 122.925C510.437 125.318 512.375 126.515 514.996 126.515C516.819 126.515 518.357 125.888 519.611 124.634C520.864 123.381 521.491 121.842 521.491 120.019V41.9016C521.491 40.0778 520.864 38.5401 519.611 37.2862C518.357 36.033 516.819 35.4057 514.996 35.4057ZM527.987 61.3881C527.987 69.0234 530.437 75.2626 535.337 80.106C540.237 84.9487 546.505 87.3705 554.139 87.3705C562.8 87.3705 567.131 91.7578 567.131 100.532C567.131 104.521 565.935 107.683 563.541 110.02C561.148 112.355 557.957 113.524 553.969 113.524C548.955 113.524 545.422 111.814 543.371 108.396C542.118 106.344 540.237 105.319 537.73 105.319C535.907 105.319 534.368 105.946 533.115 107.199C531.861 108.452 531.235 109.991 531.235 111.814C531.235 112.953 531.576 114.094 532.26 115.233C536.933 122.754 544.168 126.515 553.969 126.515C561.49 126.515 567.729 124.065 572.686 119.164C577.643 114.264 580.122 108.054 580.122 100.532C580.122 93.0117 577.643 86.7724 572.686 81.8152C567.729 76.8581 561.49 74.3798 553.969 74.3798C545.308 74.3798 540.977 70.0492 540.977 61.3881C540.977 52.7279 545.308 48.3974 553.969 48.3974C557.844 48.3974 560.863 49.4232 563.028 51.4741C564.168 52.6135 565.707 53.183 567.644 53.183C569.467 53.183 571.006 52.5567 572.259 51.3028C573.512 50.0496 574.139 48.5109 574.139 46.6881C574.139 44.9782 573.456 43.4402 572.088 42.0728C567.416 37.6287 561.376 35.4057 553.969 35.4057C546.334 35.4057 540.094 37.8275 535.252 42.6709C530.408 47.5142 527.987 53.7529 527.987 61.3881ZM593.113 35.4057C591.29 35.4057 589.751 36.033 588.498 37.2862C587.244 38.5401 586.618 40.0778 586.618 41.9016V120.019C586.618 121.842 587.244 123.381 588.498 124.634C589.751 125.888 591.29 126.515 593.113 126.515C594.936 126.515 596.475 125.888 597.729 124.634C598.982 123.381 599.608 121.842 599.608 120.019V41.9016C599.608 40.0778 598.982 38.5401 597.729 37.2862C596.475 36.033 594.936 35.4057 593.113 35.4057ZM593.113 27.7137C594.936 27.7137 596.475 27.0871 597.729 25.8332C598.982 24.5803 599.608 23.0416 599.608 21.2188C599.608 19.3951 598.982 17.8279 597.729 16.5173C596.475 15.2075 594.936 14.5518 593.113 14.5518C591.29 14.5518 589.751 15.2075 588.498 16.5173C587.244 17.8279 586.618 19.3951 586.618 21.2188C586.618 23.0416 587.244 24.5803 588.498 25.8332C589.751 27.0871 591.29 27.7137 593.113 27.7137ZM606.104 61.3881V100.532C606.104 108.168 608.526 114.407 613.369 119.249C618.212 124.093 624.451 126.515 632.086 126.515C633.91 126.515 635.448 125.888 636.702 124.634C637.955 123.381 638.582 121.842 638.582 120.019C638.582 118.196 637.955 116.657 636.702 115.403C635.448 114.15 633.91 113.524 632.086 113.524C623.425 113.524 619.095 109.136 619.095 100.362V61.3881C619.095 52.7279 623.425 48.3974 632.086 48.3974C633.91 48.3974 635.448 47.7708 636.702 46.5169C637.955 45.263 638.582 43.7253 638.582 41.9016C638.582 40.0778 637.955 38.5401 636.702 37.2862C635.448 36.033 633.91 35.4057 632.086 35.4057C624.451 35.4057 618.212 37.8275 613.369 42.6709C608.526 47.5142 606.104 53.7529 606.104 61.3881Z" fill="#969695"/>
<path fill-rule="evenodd" clip-rule="evenodd" d="M0.636392 0.0191832C11.739 -0.316295 22.9501 3.7483 31.4217 12.219C39.8925 20.6907 43.9556 31.9002 43.6198 43.0026C32.518 43.3383 21.3106 39.2728 12.8396 30.8021C4.36794 22.3301 0.300611 11.1209 0.636392 0.0191832Z" fill="#009949"/>
</svg>
