<svg width="200" height="44" viewBox="0 0 200 44" fill="none" xmlns="http://www.w3.org/2000/svg">
<g clip-path="url(#clip0_3_34279)">
<path fill-rule="evenodd" clip-rule="evenodd" d="M111.606 10.6292C111.036 10.6292 110.556 10.8144 110.165 11.1853C109.773 11.5559 109.578 12.011 109.578 12.5502V24.1279C109.578 26.6896 108.208 27.9704 105.468 27.9704C102.764 27.9704 101.412 26.6896 101.412 24.1279V12.5502C101.412 12.011 101.217 11.5559 100.825 11.1853C100.434 10.8144 99.9536 10.6292 99.3845 10.6292C98.8152 10.6292 98.3347 10.8144 97.9436 11.1853C97.5521 11.5559 97.3564 12.011 97.3564 12.5502V24.1279C97.3564 26.3862 98.1126 28.2316 99.6247 29.6641C101.137 31.0964 103.085 31.8127 105.468 31.8127C106.998 31.8127 108.368 31.5093 109.578 30.9027V35.7056C109.578 36.8854 109.204 37.8206 108.457 38.5117C107.71 39.2025 106.714 39.5481 105.468 39.5481C102.8 39.5481 101.448 38.2505 101.412 35.6552C101.412 35.1495 101.208 34.7113 100.799 34.3405C100.389 33.9699 99.9181 33.7844 99.3845 33.7844C98.8152 33.7844 98.3347 33.9699 97.9436 34.3405C97.5521 34.7113 97.3564 35.1662 97.3564 35.7056C97.3564 37.9639 98.1126 39.8093 99.6247 41.2416C101.137 42.6742 103.085 43.3904 105.468 43.3904C107.816 43.3904 109.764 42.6657 111.312 41.2164C112.86 39.767 113.634 37.9303 113.634 35.7056V12.5502C113.634 12.0446 113.429 11.5981 113.02 11.2105C112.611 10.8228 112.139 10.6292 111.606 10.6292Z" fill="white"/>
<path fill-rule="evenodd" clip-rule="evenodd" d="M79.1318 18.5618V35.903C79.1318 36.4421 79.3275 36.8972 79.7189 37.2681C80.1101 37.6387 80.5905 37.824 81.1599 37.824C81.729 37.824 82.2094 37.6387 82.6008 37.2681C82.992 36.8972 83.1877 36.4421 83.1877 35.903V18.5618C83.1877 17.3819 83.5525 16.4467 84.2818 15.7557C85.0113 15.0646 85.9984 14.7192 87.2438 14.7192C89.9833 14.7192 91.3531 16.0169 91.3531 18.6122C91.3531 19.7919 90.9796 20.7271 90.2323 21.4182C89.4851 22.109 88.4888 22.4547 87.2438 22.4547C86.6744 22.4547 86.1943 22.6399 85.8028 23.0108C85.4113 23.3815 85.2157 23.8366 85.2157 24.3757C85.2157 24.8814 85.4205 25.3279 85.8294 25.7155C86.2386 26.1032 86.7101 26.297 87.2438 26.297C89.9833 26.3644 91.3531 27.6453 91.3531 30.1394V41.6665C91.3531 42.2057 91.5486 42.6692 91.9402 43.0568C92.3314 43.4445 92.8117 43.6382 93.3811 43.6382C93.9501 43.6382 94.4306 43.4445 94.8218 43.0568C95.2133 42.6692 95.4089 42.2057 95.4089 41.6665V30.1394C95.4089 27.7127 94.5372 25.7914 92.794 24.3757C94.5372 22.8253 95.4089 20.8872 95.4089 18.5618C95.4089 16.3371 94.6351 14.5003 93.0874 13.0509C91.5398 11.6016 89.5918 10.877 87.2438 10.877C84.86 10.877 82.912 11.5932 81.4001 13.0255C79.888 14.458 79.1318 16.3035 79.1318 18.5618Z" fill="white"/>
<path fill-rule="evenodd" clip-rule="evenodd" d="M60.8269 18.5618V35.903C60.8269 36.4421 61.0225 36.8972 61.414 37.2681C61.8052 37.6387 62.2856 37.824 62.855 37.824C63.4241 37.824 63.9044 37.6387 64.2959 37.2681C64.6872 36.8972 64.8827 36.4421 64.8827 35.903V18.5618C64.8827 17.3819 65.2477 16.4467 65.9769 15.7557C66.7063 15.0646 67.6934 14.7192 68.9388 14.7192C71.6784 14.7192 73.0481 16.0169 73.0481 18.6122C73.0481 19.7919 72.6747 20.7271 71.9275 21.4182C71.1803 22.109 70.184 22.4547 68.9388 22.4547C68.3695 22.4547 67.8894 22.6399 67.4979 23.0108C67.1064 23.3815 66.9108 23.8366 66.9108 24.3757C66.9108 24.8814 67.1155 25.3279 67.5244 25.7155C67.9337 26.1032 68.4052 26.297 68.9388 26.297C71.6784 26.3644 73.0481 27.6453 73.0481 30.1394V41.6665C73.0481 42.2057 73.2438 42.6692 73.6352 43.0568C74.0264 43.4445 74.5068 43.6382 75.0762 43.6382C75.6453 43.6382 76.1257 43.4445 76.5169 43.0568C76.9083 42.6692 77.104 42.2057 77.104 41.6665V30.1394C77.104 27.7127 76.2323 25.7914 74.4891 24.3757C76.2323 22.8253 77.104 20.8872 77.104 18.5618C77.104 16.3371 76.3301 14.5003 74.7825 13.0509C73.2349 11.6016 71.2869 10.877 68.9388 10.877C66.5551 10.877 64.6071 11.5932 63.0951 13.0255C61.583 14.458 60.8269 16.3035 60.8269 18.5618Z" fill="white"/>
<path fill-rule="evenodd" clip-rule="evenodd" d="M42.5217 18.6123V30.1901C42.5217 32.4483 43.2778 34.2937 44.7901 35.726C46.3019 37.1586 48.2499 37.8748 50.6337 37.8748C52.9817 37.8748 54.9297 37.1501 56.4774 35.7008C58.025 34.2514 58.7988 32.4147 58.7988 30.1901C58.7988 29.6507 58.6032 29.1958 58.2118 28.8249C57.8205 28.4543 57.3401 28.2688 56.771 28.2688C55.4544 28.2688 54.7784 28.8924 54.743 30.1396C54.6718 32.7349 53.302 34.0325 50.6337 34.0325C47.9296 34.0325 46.5776 32.7349 46.5776 30.1396V18.6123C46.5776 16.0509 47.9296 14.77 50.6337 14.77C53.3732 14.77 54.743 16.0509 54.743 18.6123V20.3312L49.7264 22.6569C48.9794 22.9939 48.6056 23.5669 48.6056 24.3759C48.6056 24.9152 48.8013 25.3704 49.1927 25.7409C49.5842 26.1118 50.0644 26.2971 50.6337 26.2971C50.954 26.2971 51.2562 26.2296 51.5408 26.095L57.6781 23.2131C58.4253 22.8761 58.7988 22.3031 58.7988 21.4942V18.6123C58.7988 16.3879 58.025 14.5508 56.4774 13.1015C54.9297 11.6521 52.9817 10.9275 50.6337 10.9275C48.2499 10.9275 46.3019 11.6438 44.7901 13.0763C43.2778 14.5088 42.5217 16.354 42.5217 18.6123Z" fill="white"/>
<path fill-rule="evenodd" clip-rule="evenodd" d="M32.3285 10.9275C30.834 10.9275 29.4822 11.2309 28.2724 11.8377V7.03453C28.2724 6.49539 28.0767 6.04031 27.6856 5.66972C27.2941 5.29886 26.8136 5.11353 26.2446 5.11353C25.6752 5.11353 25.1948 5.29886 24.8036 5.66972C24.4121 6.04031 24.2166 6.49539 24.2166 7.03453V35.9536C24.2166 36.4929 24.4121 36.9481 24.8036 37.3186C25.1948 37.6895 25.6752 37.8748 26.2446 37.8748C26.8136 37.8748 27.2941 37.6895 27.6856 37.3186C28.0767 36.9481 28.2724 36.4929 28.2724 35.9536V18.6123C28.2724 16.0508 29.6244 14.77 32.3285 14.77C35.068 14.77 36.4378 16.0508 36.4378 18.6123V35.9536C36.4378 36.4929 36.6333 36.9481 37.0248 37.3186C37.4161 37.6895 37.8965 37.8748 38.4657 37.8748C39.0348 37.8748 39.5153 37.6895 39.9065 37.3186C40.298 36.9481 40.4936 36.4929 40.4936 35.9536V18.6123C40.4936 16.3879 39.7198 14.5508 38.1721 13.1015C36.6245 11.6521 34.6765 10.9275 32.3285 10.9275Z" fill="white"/>
<path fill-rule="evenodd" clip-rule="evenodd" d="M5.91162 12.8487V30.19C5.91162 32.4483 6.66773 34.2937 8.17987 35.7259C9.69181 37.1585 11.6398 37.8748 14.0236 37.8748C16.3716 37.8748 18.3196 37.1501 19.8672 35.7008C21.4148 34.2514 22.1887 32.4146 22.1887 30.19C22.1887 29.6506 21.993 29.1958 21.6016 28.8249C21.2104 28.4543 20.73 28.2687 20.1609 28.2687C18.8443 28.2687 18.1683 28.8924 18.1329 30.1396C18.0617 32.7348 16.6919 34.0325 14.0236 34.0325C11.3195 34.0325 9.96745 32.7348 9.96745 30.1396V12.8487C9.96745 10.2873 11.3195 9.00645 14.0236 9.00645C16.7631 9.00645 18.1329 10.2873 18.1329 12.8487V18.6123C18.1329 19.1516 18.3284 19.6068 18.72 19.9774C19.1111 20.3482 19.5915 20.5335 20.1609 20.5335C20.73 20.5335 21.2104 20.3482 21.6016 19.9774C21.993 19.6068 22.1887 19.1516 22.1887 18.6123V12.8487C22.1887 10.6243 21.4148 8.7789 19.8672 7.31272C18.3196 5.84662 16.3716 5.11353 14.0236 5.11353C11.6752 5.11353 9.73636 5.84662 8.2065 7.31272C6.67655 8.7789 5.91162 10.6243 5.91162 12.8487Z" fill="white"/>
<path fill-rule="evenodd" clip-rule="evenodd" d="M136.541 10.9275C133.979 10.9275 131.951 11.7535 130.457 13.405C128.962 11.7535 126.917 10.9275 124.319 10.9275C121.936 10.9275 119.988 11.6438 118.476 13.0763C116.964 14.5088 116.208 16.3541 116.208 18.6123V35.9536C116.208 36.4929 116.403 36.9481 116.795 37.3187C117.186 37.6896 117.666 37.8748 118.236 37.8748C118.805 37.8748 119.285 37.6896 119.677 37.3187C120.068 36.9481 120.263 36.4929 120.263 35.9536V18.6123C120.263 16.0509 121.615 14.7701 124.319 14.7701C127.059 14.7701 128.429 16.0509 128.429 18.6123V35.9536C128.429 36.4929 128.624 36.9481 129.016 37.3187C129.407 37.6896 129.887 37.8748 130.457 37.8748C131.026 37.8748 131.506 37.6896 131.897 37.3187C132.289 36.9481 132.485 36.4929 132.485 35.9536V18.6123C132.485 16.0509 133.837 14.7701 136.541 14.7701C139.244 14.7701 140.597 16.0509 140.597 18.6123V35.9536C140.597 36.4929 140.792 36.9481 141.184 37.3187C141.575 37.6896 142.055 37.8748 142.625 37.8748C143.194 37.8748 143.674 37.6896 144.066 37.3187C144.457 36.9481 144.653 36.4929 144.653 35.9536V18.6123C144.653 16.3541 143.897 14.5088 142.384 13.0763C140.872 11.6438 138.924 10.9275 136.541 10.9275ZM160.93 10.9275C160.36 10.9275 159.88 11.113 159.489 11.4837C159.097 11.8546 158.902 12.3094 158.902 12.8488V30.1901C158.902 31.3698 158.528 32.305 157.781 32.9961C157.034 33.6869 156.037 34.0325 154.792 34.0325C152.088 34.0325 150.736 32.7349 150.736 30.1396V12.8488C150.736 12.3094 150.541 11.8546 150.149 11.4837C149.758 11.113 149.277 10.9275 148.708 10.9275C148.139 10.9275 147.659 11.113 147.267 11.4837C146.876 11.8546 146.68 12.3094 146.68 12.8488V30.1901C146.68 32.4484 147.436 34.2938 148.949 35.726C150.461 37.1586 152.408 37.8748 154.792 37.8748C156.429 37.8748 157.87 37.521 159.115 36.8132C159.506 37.521 160.111 37.8748 160.93 37.8748C161.499 37.8748 161.979 37.6896 162.37 37.3187C162.762 36.9481 162.957 36.4929 162.957 35.9536V12.8488C162.957 12.3094 162.762 11.8546 162.37 11.4837C161.979 11.113 161.499 10.9275 160.93 10.9275ZM164.985 18.6123C164.985 20.8706 165.75 22.716 167.28 24.1485C168.81 25.5809 170.767 26.2972 173.151 26.2972C175.855 26.2972 177.207 27.5948 177.207 30.1901C177.207 31.3698 176.833 32.305 176.086 32.9961C175.339 33.6869 174.342 34.0325 173.097 34.0325C171.532 34.0325 170.429 33.5268 169.788 32.5158C169.397 31.909 168.81 31.6058 168.028 31.6058C167.458 31.6058 166.978 31.7911 166.587 32.1617C166.195 32.5326 165.999 32.9877 165.999 33.5268C165.999 33.8638 166.106 34.2011 166.32 34.5381C167.778 36.7625 170.038 37.8748 173.097 37.8748C175.445 37.8748 177.393 37.1502 178.941 35.7009C180.489 34.2515 181.262 32.4147 181.262 30.1901C181.262 27.9657 180.489 26.1203 178.941 24.6541C177.393 23.1879 175.445 22.4549 173.097 22.4549C170.393 22.4549 169.041 21.174 169.041 18.6123C169.041 16.0509 170.393 14.7701 173.097 14.7701C174.307 14.7701 175.25 15.0735 175.926 15.68C176.282 16.0171 176.762 16.1855 177.367 16.1855C177.936 16.1855 178.416 16.0003 178.808 15.6294C179.199 15.2587 179.395 14.8036 179.395 14.2645C179.395 13.7588 179.181 13.3039 178.754 12.8994C177.296 11.585 175.41 10.9275 173.097 10.9275C170.714 10.9275 168.766 11.6438 167.254 13.0763C165.742 14.5088 164.985 16.3541 164.985 18.6123ZM185.319 10.9275C184.749 10.9275 184.269 11.113 183.878 11.4837C183.486 11.8546 183.291 12.3094 183.291 12.8488V35.9536C183.291 36.4929 183.486 36.9481 183.878 37.3187C184.269 37.6896 184.749 37.8748 185.319 37.8748C185.888 37.8748 186.368 37.6896 186.76 37.3187C187.151 36.9481 187.346 36.4929 187.346 35.9536V12.8488C187.346 12.3094 187.151 11.8546 186.76 11.4837C186.368 11.113 185.888 10.9275 185.319 10.9275ZM185.319 8.65244C185.888 8.65244 186.368 8.4671 186.76 8.09625C187.151 7.72566 187.346 7.27057 187.346 6.73144C187.346 6.19204 187.151 5.72851 186.76 5.34086C186.368 4.95348 185.888 4.75952 185.319 4.75952C184.749 4.75952 184.269 4.95348 183.878 5.34086C183.486 5.72851 183.291 6.19204 183.291 6.73144C183.291 7.27057 183.486 7.72566 183.878 8.09625C184.269 8.4671 184.749 8.65244 185.319 8.65244ZM189.374 18.6123V30.1901C189.374 32.4484 190.131 34.2938 191.643 35.726C193.155 37.1586 195.103 37.8748 197.486 37.8748C198.056 37.8748 198.536 37.6896 198.927 37.3187C199.319 36.9481 199.514 36.4929 199.514 35.9536C199.514 35.4145 199.319 34.9593 198.927 34.5885C198.536 34.2179 198.056 34.0325 197.486 34.0325C194.782 34.0325 193.43 32.7349 193.43 30.1396V18.6123C193.43 16.0509 194.782 14.7701 197.486 14.7701C198.056 14.7701 198.536 14.5847 198.927 14.2139C199.319 13.843 199.514 13.3882 199.514 12.8488C199.514 12.3094 199.319 11.8546 198.927 11.4837C198.536 11.113 198.056 10.9275 197.486 10.9275C195.103 10.9275 193.155 11.6438 191.643 13.0763C190.131 14.5088 189.374 16.3541 189.374 18.6123Z" fill="#2F2C2C"/>
<path fill-rule="evenodd" clip-rule="evenodd" d="M0.344619 0.46124C3.81097 0.362016 7.31116 1.5642 9.95609 4.0696C12.6007 6.57527 13.8693 9.89071 13.7644 13.1745C10.2984 13.2738 6.79931 12.0713 4.15457 9.56592C1.50964 7.06016 0.239785 3.74481 0.344619 0.46124Z" fill="#009949"/>
</g>
<defs>
<clipPath id="clip0_3_34279">
<rect width="200" height="44" fill="white"/>
</clipPath>
</defs>
</svg>
