<?xml version="1.0" encoding="UTF-8"?>
<svg xmlns="http://www.w3.org/2000/svg" width="172" height="40" viewBox="0 0 172 40" fill="none">
  <g clip-path="url(#clip0_481_17688)">
    <path fill-rule="evenodd" clip-rule="evenodd" d="M95.9809 9.66211C95.4913 9.66211 95.0782 9.83052 94.7417 10.1677C94.4051 10.5046 94.2368 10.9184 94.2368 11.4085V21.9337C94.2368 24.2625 93.0588 25.4269 90.7028 25.4269C88.3773 25.4269 87.2146 24.2625 87.2146 21.9337V11.4085C87.2146 10.9184 87.0464 10.5046 86.7099 10.1677C86.3732 9.83052 85.9601 9.66211 85.4707 9.66211C84.9811 9.66211 84.5679 9.83052 84.2315 10.1677C83.8948 10.5046 83.7266 10.9184 83.7266 11.4085V21.9337C83.7266 23.9867 84.3768 25.6643 85.6773 26.9666C86.9775 28.2687 88.6528 28.9199 90.7028 28.9199C92.0186 28.9199 93.1966 28.6441 94.2368 28.0926V32.4589C94.2368 33.5314 93.9156 34.3816 93.273 35.0099C92.6305 35.6379 91.7736 35.9521 90.7028 35.9521C88.4081 35.9521 87.2453 34.7724 87.2146 32.413C87.2146 31.9533 87.0387 31.555 86.6868 31.2179C86.3349 30.881 85.9296 30.7123 85.4707 30.7123C84.9811 30.7123 84.5679 30.881 84.2315 31.2179C83.8948 31.555 83.7266 31.9686 83.7266 32.4589C83.7266 34.5119 84.3768 36.1895 85.6773 37.4916C86.9775 38.7939 88.6528 39.445 90.7028 39.445C92.7222 39.445 94.3974 38.7863 95.7284 37.4687C97.0593 36.1511 97.7248 34.4813 97.7248 32.4589V11.4085C97.7248 10.9489 97.549 10.543 97.1971 10.1906C96.8452 9.83819 96.4399 9.66211 95.9809 9.66211Z" fill="#D74248"></path>
    <path fill-rule="evenodd" clip-rule="evenodd" d="M68.0527 16.8749V32.6396C68.0527 33.1297 68.221 33.5434 68.5576 33.8806C68.8941 34.2176 69.3072 34.386 69.7969 34.386C70.2863 34.386 70.6994 34.2176 71.0361 33.8806C71.3725 33.5434 71.5407 33.1297 71.5407 32.6396V16.8749C71.5407 15.8023 71.8545 14.9521 72.4817 14.3239C73.109 13.6956 73.958 13.3817 75.029 13.3817C77.385 13.3817 78.563 14.5613 78.563 16.9207C78.563 17.9932 78.2418 18.8434 77.5991 19.4716C76.9566 20.0996 76.0997 20.4139 75.029 20.4139C74.5393 20.4139 74.1265 20.5823 73.7898 20.9194C73.453 21.2564 73.2849 21.6701 73.2849 22.1603C73.2849 22.62 73.461 23.0259 73.8126 23.3783C74.1645 23.7307 74.5701 23.9069 75.029 23.9069C77.385 23.9682 78.563 25.1326 78.563 27.4V37.8792C78.563 38.3693 78.7312 38.7907 79.0679 39.1431C79.4043 39.4955 79.8175 39.6716 80.3071 39.6716C80.7965 39.6716 81.2097 39.4955 81.5461 39.1431C81.8828 38.7907 82.051 38.3693 82.051 37.8792V27.4C82.051 25.1939 81.3014 23.4473 79.8022 22.1603C81.3014 20.7508 82.051 18.9889 82.051 16.8749C82.051 14.8524 81.3855 13.1826 80.0545 11.865C78.7236 10.5474 77.0483 9.88867 75.029 9.88867C72.9789 9.88867 71.3037 10.5398 70.0034 11.8419C68.703 13.1442 68.0527 14.8219 68.0527 16.8749Z" fill="#D74248"></path>
    <path fill-rule="evenodd" clip-rule="evenodd" d="M52.3105 16.8749V32.6396C52.3105 33.1297 52.4788 33.5434 52.8155 33.8806C53.1519 34.2176 53.565 34.386 54.0547 34.386C54.5441 34.386 54.9572 34.2176 55.2939 33.8806C55.6304 33.5434 55.7986 33.1297 55.7986 32.6396V16.8749C55.7986 15.8023 56.1124 14.9521 56.7395 14.3239C57.3669 13.6956 58.2158 13.3817 59.2868 13.3817C61.6428 13.3817 62.8208 14.5613 62.8208 16.9207C62.8208 17.9932 62.4996 18.8434 61.857 19.4716C61.2144 20.0996 60.3576 20.4139 59.2868 20.4139C58.7971 20.4139 58.3843 20.5823 58.0476 20.9194C57.7109 21.2564 57.5427 21.6701 57.5427 22.1603C57.5427 22.62 57.7188 23.0259 58.0704 23.3783C58.4224 23.7307 58.8279 23.9069 59.2868 23.9069C61.6428 23.9682 62.8208 25.1326 62.8208 27.4V37.8792C62.8208 38.3693 62.9891 38.7907 63.3257 39.1431C63.6621 39.4955 64.0753 39.6716 64.5649 39.6716C65.0544 39.6716 65.4675 39.4955 65.8039 39.1431C66.1406 38.7907 66.3088 38.3693 66.3088 37.8792V27.4C66.3088 25.1939 65.5592 23.4473 64.06 22.1603C65.5592 20.7508 66.3088 18.9889 66.3088 16.8749C66.3088 14.8524 65.6433 13.1826 64.3124 11.865C62.9814 10.5474 61.3061 9.88867 59.2868 9.88867C57.2368 9.88867 55.5615 10.5398 54.2612 11.8419C52.9608 13.1442 52.3105 14.8219 52.3105 16.8749Z" fill="#D74248"></path>
    <path fill-rule="evenodd" clip-rule="evenodd" d="M36.5684 16.9198V27.445C36.5684 29.498 37.2186 31.1756 38.5191 32.4777C39.8193 33.78 41.4946 34.4311 43.5446 34.4311C45.564 34.4311 47.2392 33.7724 48.5702 32.4548C49.9012 31.1372 50.5666 29.4674 50.5666 27.445C50.5666 26.9547 50.3985 26.5412 50.0618 26.204C49.7253 25.8671 49.3122 25.6984 48.8228 25.6984C47.6905 25.6984 47.1091 26.2653 47.0786 27.3991C47.0174 29.7585 45.8394 30.9382 43.5446 30.9382C41.2191 30.9382 40.0564 29.7585 40.0564 27.3991V16.9198C40.0564 14.5912 41.2191 13.4268 43.5446 13.4268C45.9006 13.4268 47.0786 14.5912 47.0786 16.9198V18.4824L42.7644 20.5967C42.1219 20.9031 41.8005 21.424 41.8005 22.1594C41.8005 22.6497 41.9688 23.0635 42.3054 23.4004C42.6421 23.7375 43.055 23.906 43.5446 23.906C43.8201 23.906 44.08 23.8446 44.3247 23.7222L49.6029 21.1023C50.2455 20.796 50.5666 20.2751 50.5666 19.5397V16.9198C50.5666 14.8976 49.9012 13.2276 48.5702 11.91C47.2392 10.5924 45.564 9.93359 43.5446 9.93359C41.4946 9.93359 39.8193 10.5848 38.5191 11.8871C37.2186 13.1893 36.5684 14.8668 36.5684 16.9198Z" fill="#D74248"></path>
    <path fill-rule="evenodd" clip-rule="evenodd" d="M27.8024 9.93383C26.5172 9.93383 25.3547 10.2097 24.3142 10.7613V6.3948C24.3142 5.90468 24.1459 5.49097 23.8095 5.15407C23.4729 4.81693 23.0596 4.64844 22.5703 4.64844C22.0806 4.64844 21.6675 4.81693 21.331 5.15407C20.9943 5.49097 20.8262 5.90468 20.8262 6.3948V32.6848C20.8262 33.1751 20.9943 33.5889 21.331 33.9258C21.6675 34.263 22.0806 34.4314 22.5703 34.4314C23.0596 34.4314 23.4729 34.263 23.8095 33.9258C24.1459 33.5889 24.3142 33.1751 24.3142 32.6848V16.92C24.3142 14.5915 25.4769 13.4271 27.8024 13.4271C30.1584 13.4271 31.3364 14.5915 31.3364 16.92V32.6848C31.3364 33.1751 31.5046 33.5889 31.8413 33.9258C32.1778 34.263 32.5909 34.4314 33.0805 34.4314C33.5699 34.4314 33.9831 34.263 34.3195 33.9258C34.6562 33.5889 34.8244 33.1751 34.8244 32.6848V16.92C34.8244 14.8978 34.1589 13.2278 32.8279 11.9102C31.497 10.5926 29.8217 9.93383 27.8024 9.93383Z" fill="#D74248"></path>
    <path fill-rule="evenodd" clip-rule="evenodd" d="M5.08398 11.6804V27.4453C5.08398 29.4982 5.73424 31.1759 7.03468 32.4779C8.33495 33.7803 10.0102 34.4314 12.0603 34.4314C14.0796 34.4314 15.7548 33.7726 17.0858 32.4551C18.4168 31.1374 19.0823 29.4676 19.0823 27.4453C19.0823 26.9549 18.914 26.5414 18.5773 26.2042C18.2409 25.8673 17.8278 25.6986 17.3384 25.6986C16.2061 25.6986 15.6247 26.2656 15.5942 27.3994C15.533 29.7587 14.355 30.9384 12.0603 30.9384C9.73475 30.9384 8.572 29.7587 8.572 27.3994V11.6804C8.572 9.35187 9.73475 8.18746 12.0603 8.18746C14.4162 8.18746 15.5942 9.35187 15.5942 11.6804V16.92C15.5942 17.4103 15.7624 17.8241 16.0992 18.161C16.4356 18.4982 16.8487 18.6666 17.3384 18.6666C17.8278 18.6666 18.2409 18.4982 18.5773 18.161C18.914 17.8241 19.0823 17.4103 19.0823 16.92V11.6804C19.0823 9.65823 18.4168 7.9806 17.0858 6.6477C15.7548 5.31489 14.0796 4.64844 12.0603 4.64844C10.0407 4.64844 8.37326 5.31489 7.05758 6.6477C5.74182 7.9806 5.08398 9.65823 5.08398 11.6804Z" fill="#D74248"></path>
    <path fill-rule="evenodd" clip-rule="evenodd" d="M117.424 9.93344C115.221 9.93344 113.477 10.6843 112.192 12.1857C110.907 10.6843 109.147 9.93344 106.914 9.93344C104.864 9.93344 103.188 10.5846 101.888 11.8869C100.588 13.1892 99.9375 14.8667 99.9375 16.9196V32.6845C99.9375 33.1747 100.106 33.5885 100.442 33.9254C100.779 34.2626 101.192 34.431 101.682 34.431C102.171 34.431 102.584 34.2626 102.921 33.9254C103.257 33.5885 103.426 33.1747 103.426 32.6845V16.9196C103.426 14.5911 104.588 13.4267 106.914 13.4267C109.27 13.4267 110.448 14.5911 110.448 16.9196V32.6845C110.448 33.1747 110.616 33.5885 110.953 33.9254C111.289 34.2626 111.702 34.431 112.192 34.431C112.681 34.431 113.094 34.2626 113.431 33.9254C113.768 33.5885 113.936 33.1747 113.936 32.6845V16.9196C113.936 14.5911 115.099 13.4267 117.424 13.4267C119.749 13.4267 120.912 14.5911 120.912 16.9196V32.6845C120.912 33.1747 121.08 33.5885 121.417 33.9254C121.754 34.2626 122.167 34.431 122.656 34.431C123.146 34.431 123.559 34.2626 123.895 33.9254C124.232 33.5885 124.4 33.1747 124.4 32.6845V16.9196C124.4 14.8667 123.75 13.1892 122.45 11.8869C121.149 10.5846 119.474 9.93344 117.424 9.93344ZM138.398 9.93344C137.909 9.93344 137.496 10.1021 137.159 10.4391C136.823 10.7762 136.654 11.1897 136.654 11.68V27.4449C136.654 28.5174 136.333 29.3676 135.691 29.9958C135.048 30.6238 134.191 30.938 133.12 30.938C130.795 30.938 129.632 29.7583 129.632 27.399V11.68C129.632 11.1897 129.464 10.7762 129.128 10.4391C128.791 10.1021 128.378 9.93344 127.888 9.93344C127.399 9.93344 126.985 10.1021 126.649 10.4391C126.312 10.7762 126.144 11.1897 126.144 11.68V27.4449C126.144 29.4978 126.794 31.1755 128.095 32.4775C129.395 33.7799 131.07 34.431 133.12 34.431C134.528 34.431 135.767 34.1094 136.838 33.4658C137.175 34.1094 137.695 34.431 138.398 34.431C138.888 34.431 139.301 34.2626 139.638 33.9254C139.974 33.5885 140.142 33.1747 140.142 32.6845V11.68C140.142 11.1897 139.974 10.7762 139.638 10.4391C139.301 10.1021 138.888 9.93344 138.398 9.93344ZM141.887 16.9196C141.887 18.9726 142.544 20.6503 143.86 21.9525C145.176 23.2547 146.859 23.9058 148.909 23.9058C151.234 23.9058 152.397 25.0855 152.397 27.4449C152.397 28.5174 152.076 29.3676 151.433 29.9958C150.79 30.6238 149.934 30.938 148.863 30.938C147.517 30.938 146.568 30.4783 146.017 29.5592C145.681 29.0075 145.176 28.7319 144.503 28.7319C144.013 28.7319 143.6 28.9004 143.263 29.2373C142.927 29.5744 142.759 29.9881 142.759 30.4783C142.759 30.7846 142.85 31.0912 143.034 31.3976C144.288 33.4198 146.231 34.431 148.863 34.431C150.882 34.431 152.557 33.7722 153.888 32.4547C155.219 31.137 155.885 29.4672 155.885 27.4449C155.885 25.4227 155.219 23.745 153.888 22.4121C152.557 21.0792 150.882 20.4129 148.863 20.4129C146.537 20.4129 145.375 19.2485 145.375 16.9196C145.375 14.5911 146.537 13.4267 148.863 13.4267C149.903 13.4267 150.714 13.7025 151.295 14.2539C151.601 14.5603 152.014 14.7134 152.535 14.7134C153.024 14.7134 153.437 14.545 153.774 14.2079C154.11 13.8709 154.278 13.4572 154.278 12.9671C154.278 12.5073 154.095 12.0938 153.728 11.7261C152.473 10.5312 150.852 9.93344 148.863 9.93344C146.813 9.93344 145.137 10.5846 143.837 11.8869C142.537 13.1892 141.887 14.8667 141.887 16.9196ZM159.373 9.93344C158.883 9.93344 158.47 10.1021 158.134 10.4391C157.797 10.7762 157.629 11.1897 157.629 11.68V32.6845C157.629 33.1747 157.797 33.5885 158.134 33.9254C158.47 34.2626 158.883 34.431 159.373 34.431C159.862 34.431 160.276 34.2626 160.612 33.9254C160.949 33.5885 161.117 33.1747 161.117 32.6845V11.68C161.117 11.1897 160.949 10.7762 160.612 10.4391C160.276 10.1021 159.862 9.93344 159.373 9.93344ZM159.373 7.86519C159.862 7.86519 160.276 7.6967 160.612 7.35956C160.949 7.02266 161.117 6.60895 161.117 6.11883C161.117 5.62846 160.949 5.20707 160.612 4.85466C160.276 4.5025 159.862 4.32617 159.373 4.32617C158.883 4.32617 158.47 4.5025 158.134 4.85466C157.797 5.20707 157.629 5.62846 157.629 6.11883C157.629 6.60895 157.797 7.02266 158.134 7.35956C158.47 7.6967 158.883 7.86519 159.373 7.86519ZM162.861 16.9196V27.4449C162.861 29.4978 163.511 31.1755 164.812 32.4775C166.112 33.7799 167.787 34.431 169.837 34.431C170.327 34.431 170.74 34.2626 171.077 33.9254C171.413 33.5885 171.581 33.1747 171.581 32.6845C171.581 32.1943 171.413 31.7805 171.077 31.4434C170.74 31.1065 170.327 30.938 169.837 30.938C167.512 30.938 166.349 29.7583 166.349 27.399V16.9196C166.349 14.5911 167.512 13.4267 169.837 13.4267C170.327 13.4267 170.74 13.2582 171.077 12.921C171.413 12.5839 171.581 12.1704 171.581 11.68C171.581 11.1897 171.413 10.7762 171.077 10.4391C170.74 10.1021 170.327 9.93344 169.837 9.93344C167.787 9.93344 166.112 10.5846 164.812 11.8869C163.511 13.1892 162.861 14.8667 162.861 16.9196Z" fill="#969695"></path>
    <path fill-rule="evenodd" clip-rule="evenodd" d="M0.296172 0.419221C3.27723 0.329016 6.2874 1.42191 8.56204 3.69955C10.8364 5.97743 11.9274 8.99147 11.8372 11.9767C8.85639 12.067 5.84721 10.9738 3.57273 8.6962C1.29809 6.41824 0.206015 3.40428 0.296172 0.419221Z" fill="#009949"></path>
  </g>
  <defs>
    <clipPath id="clip0_481_17688">
      <rect width="172" height="40" fill="white"></rect>
    </clipPath>
  </defs>
</svg>
