<svg width="638" height="146" viewBox="0 0 638 146" fill="none" xmlns="http://www.w3.org/2000/svg">
<path fill-rule="evenodd" clip-rule="evenodd" d="M356.393 34.3979C354.569 34.3979 353.03 35.0243 351.777 36.2785C350.523 37.5314 349.897 39.0701 349.897 40.8929V80.0377C349.897 88.6989 345.509 93.0295 336.735 93.0295C328.073 93.0295 323.743 88.6989 323.743 80.0377V40.8929C323.743 39.0701 323.116 37.5314 321.863 36.2785C320.609 35.0243 319.071 34.3979 317.248 34.3979C315.424 34.3979 313.885 35.0243 312.632 36.2785C311.379 37.5314 310.752 39.0701 310.752 40.8929V80.0377C310.752 87.673 313.174 93.9124 318.017 98.7557C322.86 103.599 329.099 106.02 336.735 106.02C341.635 106.02 346.022 104.994 349.897 102.944V119.182C349.897 123.171 348.701 126.333 346.307 128.67C343.914 131.005 340.723 132.174 336.735 132.174C328.188 132.174 323.857 127.787 323.743 119.012C323.743 117.302 323.088 115.821 321.777 114.567C320.467 113.314 318.957 112.687 317.248 112.687C315.424 112.687 313.885 113.314 312.632 114.567C311.379 115.821 310.752 117.359 310.752 119.182C310.752 126.818 313.174 133.057 318.017 137.9C322.86 142.743 329.099 145.165 336.735 145.165C344.255 145.165 350.495 142.715 355.452 137.815C360.409 132.914 362.888 126.704 362.888 119.182V40.8929C362.888 39.1836 362.233 37.6741 360.922 36.3635C359.611 35.0528 358.102 34.3979 356.393 34.3979Z" fill="#D74248"/>
<path fill-rule="evenodd" clip-rule="evenodd" d="M252.373 61.2173V119.849C252.373 121.671 253 123.21 254.254 124.464C255.507 125.717 257.045 126.343 258.869 126.343C260.692 126.343 262.23 125.717 263.484 124.464C264.737 123.21 265.364 121.671 265.364 119.849V61.2173C265.364 57.2282 266.533 54.0662 268.868 51.7297C271.205 49.3931 274.367 48.2255 278.356 48.2255C287.13 48.2255 291.518 52.6129 291.518 61.3876C291.518 65.3763 290.322 68.5384 287.928 70.8749C285.535 73.2105 282.344 74.3794 278.356 74.3794C276.532 74.3794 274.994 75.0057 273.74 76.2596C272.486 77.5129 271.86 79.0515 271.86 80.8744C271.86 82.5843 272.516 84.0938 273.825 85.4044C275.136 86.7151 276.646 87.3703 278.356 87.3703C287.13 87.5983 291.518 91.9289 291.518 100.362V139.335C291.518 141.158 292.144 142.725 293.398 144.036C294.651 145.347 296.19 146.001 298.014 146.001C299.836 146.001 301.375 145.347 302.628 144.036C303.882 142.725 304.509 141.158 304.509 139.335V100.362C304.509 92.1569 301.717 85.661 296.133 80.8744C301.717 75.6323 304.509 69.0797 304.509 61.2173C304.509 53.6955 302.03 47.4853 297.073 42.5848C292.116 37.6847 285.877 35.2346 278.356 35.2346C270.72 35.2346 264.481 37.6562 259.638 42.4989C254.795 47.3423 252.373 53.582 252.373 61.2173Z" fill="#D74248"/>
<path fill-rule="evenodd" clip-rule="evenodd" d="M193.742 61.2173V119.849C193.742 121.671 194.369 123.21 195.623 124.464C196.876 125.717 198.414 126.343 200.238 126.343C202.061 126.343 203.6 125.717 204.853 124.464C206.107 123.21 206.733 121.671 206.733 119.849V61.2173C206.733 57.2282 207.902 54.0662 210.238 51.7297C212.574 49.3931 215.736 48.2255 219.725 48.2255C228.5 48.2255 232.887 52.6129 232.887 61.3876C232.887 65.3763 231.691 68.5384 229.297 70.8749C226.904 73.2105 223.713 74.3794 219.725 74.3794C217.901 74.3794 216.363 75.0057 215.109 76.2596C213.856 77.5129 213.229 79.0515 213.229 80.8744C213.229 82.5843 213.885 84.0938 215.194 85.4044C216.505 86.7151 218.016 87.3703 219.725 87.3703C228.5 87.5983 232.887 91.9289 232.887 100.362V139.335C232.887 141.158 233.514 142.725 234.767 144.036C236.02 145.347 237.559 146.001 239.383 146.001C241.206 146.001 242.744 145.347 243.997 144.036C245.251 142.725 245.878 141.158 245.878 139.335V100.362C245.878 92.1569 243.086 85.661 237.502 80.8744C243.086 75.6323 245.878 69.0797 245.878 61.2173C245.878 53.6955 243.399 47.4853 238.442 42.5848C233.485 37.6847 227.246 35.2346 219.725 35.2346C212.09 35.2346 205.85 37.6562 201.007 42.4989C196.164 47.3423 193.742 53.582 193.742 61.2173Z" fill="#D74248"/>
<path fill-rule="evenodd" clip-rule="evenodd" d="M135.109 61.3884V100.533C135.109 108.168 137.531 114.408 142.375 119.25C147.217 124.094 153.457 126.516 161.092 126.516C168.613 126.516 174.852 124.065 179.809 119.165C184.767 114.265 187.245 108.055 187.245 100.533C187.245 98.7094 186.619 97.1717 185.365 95.9175C184.112 94.6645 182.573 94.0373 180.75 94.0373C176.533 94.0373 174.368 96.1458 174.254 100.363C174.026 109.137 169.639 113.525 161.092 113.525C152.431 113.525 148.1 109.137 148.1 100.363V61.3884C148.1 52.7281 152.431 48.3975 161.092 48.3975C169.867 48.3975 174.254 52.7281 174.254 61.3884V67.2L158.186 75.0633C155.793 76.2027 154.596 78.14 154.596 80.8752C154.596 82.6986 155.223 84.2376 156.477 85.4906C157.731 86.7444 159.269 87.3711 161.092 87.3711C162.118 87.3711 163.086 87.1428 163.998 86.6877L183.656 76.9438C186.049 75.8044 187.245 73.8671 187.245 71.1323V61.3884C187.245 53.8676 184.767 47.6564 179.809 42.7563C174.852 37.8558 168.613 35.4058 161.092 35.4058C153.457 35.4058 147.217 37.8276 142.375 42.671C137.531 47.5144 135.109 53.7531 135.109 61.3884Z" fill="#D74248"/>
<path fill-rule="evenodd" clip-rule="evenodd" d="M102.459 35.4061C97.6723 35.4061 93.3426 36.432 89.4674 38.4837V22.244C89.4674 20.4212 88.8408 18.8825 87.5878 17.6295C86.3339 16.3757 84.795 15.749 82.9725 15.749C81.1487 15.749 79.61 16.3757 78.3568 17.6295C77.1029 18.8825 76.4766 20.4212 76.4766 22.244V120.02C76.4766 121.844 77.1029 123.383 78.3568 124.636C79.61 125.89 81.1487 126.516 82.9725 126.516C84.795 126.516 86.3339 125.89 87.5878 124.636C88.8408 123.383 89.4674 121.844 89.4674 120.02V61.3888C89.4674 52.7285 93.798 48.3979 102.459 48.3979C111.234 48.3979 115.621 52.7285 115.621 61.3888V120.02C115.621 121.844 116.248 123.383 117.502 124.636C118.755 125.89 120.293 126.516 122.117 126.516C123.94 126.516 125.479 125.89 126.732 124.636C127.986 123.383 128.612 121.844 128.612 120.02V61.3888C128.612 53.8679 126.134 47.6568 121.176 42.7566C116.219 37.8562 109.98 35.4061 102.459 35.4061Z" fill="#D74248"/>
<path fill-rule="evenodd" clip-rule="evenodd" d="M17.8457 41.902V100.534C17.8457 108.169 20.2675 114.408 25.1109 119.251C29.9537 124.094 36.193 126.516 43.8284 126.516C51.3492 126.516 57.5886 124.066 62.5455 119.166C67.5027 114.265 69.9813 108.055 69.9813 100.534C69.9813 98.7098 69.3547 97.172 68.1008 95.9179C66.8479 94.6649 65.3092 94.0376 63.4864 94.0376C59.2693 94.0376 57.104 96.1462 56.9905 100.363C56.7625 109.138 52.3751 113.525 43.8284 113.525C35.1672 113.525 30.8366 109.138 30.8366 100.363V41.902C30.8366 33.2417 35.1672 28.9111 43.8284 28.9111C52.6031 28.9111 56.9905 33.2417 56.9905 41.902V61.3888C56.9905 63.2122 57.6168 64.7512 58.871 66.0041C60.124 67.258 61.6626 67.8847 63.4864 67.8847C65.3092 67.8847 66.8479 67.258 68.1008 66.0041C69.3547 64.7512 69.9813 63.2122 69.9813 61.3888V41.902C69.9813 34.3811 67.5027 28.1418 62.5455 23.1846C57.5886 18.2276 51.3492 15.749 43.8284 15.749C36.3066 15.749 30.0964 18.2276 25.1962 23.1846C20.2958 28.1418 17.8457 34.3811 17.8457 41.902Z" fill="#D74248"/>
<path fill-rule="evenodd" clip-rule="evenodd" d="M436.254 35.4064C428.049 35.4064 421.553 38.199 416.768 43.7828C411.981 38.199 405.428 35.4064 397.11 35.4064C389.474 35.4064 383.235 37.8283 378.392 42.6717C373.549 47.515 371.127 53.7538 371.127 61.3891V120.021C371.127 121.844 371.754 123.383 373.007 124.636C374.26 125.89 375.799 126.516 377.623 126.516C379.446 126.516 380.984 125.89 382.238 124.636C383.491 123.383 384.118 121.844 384.118 120.021V61.3891C384.118 52.7288 388.448 48.3982 397.11 48.3982C405.884 48.3982 410.272 52.7288 410.272 61.3891V120.021C410.272 121.844 410.898 123.383 412.152 124.636C413.405 125.89 414.944 126.516 416.768 126.516C418.59 126.516 420.129 125.89 421.382 124.636C422.636 123.383 423.263 121.844 423.263 120.021V61.3891C423.263 52.7288 427.593 48.3982 436.254 48.3982C444.915 48.3982 449.245 52.7288 449.245 61.3891V120.021C449.245 121.844 449.872 123.383 451.125 124.636C452.379 125.89 453.917 126.516 455.741 126.516C457.565 126.516 459.103 125.89 460.357 124.636C461.609 123.383 462.237 121.844 462.237 120.021V61.3891C462.237 53.7538 459.815 47.515 454.972 42.6717C450.128 37.8283 443.89 35.4064 436.254 35.4064ZM514.372 35.4064C512.549 35.4064 511.01 36.0337 509.757 37.287C508.503 38.5408 507.876 40.0786 507.876 41.9023V100.534C507.876 104.523 506.68 107.685 504.287 110.021C501.894 112.357 498.703 113.525 494.714 113.525C486.053 113.525 481.723 109.138 481.723 100.363V41.9023C481.723 40.0786 481.096 38.5408 479.843 37.287C478.589 36.0337 477.05 35.4064 475.228 35.4064C473.404 35.4064 471.865 36.0337 470.612 37.287C469.358 38.5408 468.732 40.0786 468.732 41.9023V100.534C468.732 108.169 471.154 114.409 475.997 119.251C480.84 124.095 487.079 126.516 494.714 126.516C499.956 126.516 504.572 125.32 508.56 122.927C509.814 125.32 511.751 126.516 514.372 126.516C516.195 126.516 517.734 125.89 518.987 124.636C520.241 123.383 520.867 121.844 520.867 120.021V41.9023C520.867 40.0786 520.241 38.5408 518.987 37.287C517.734 36.0337 516.195 35.4064 514.372 35.4064ZM527.363 61.3891C527.363 69.0244 529.814 75.2638 534.714 80.1071C539.614 84.9499 545.882 87.3718 553.516 87.3718C562.177 87.3718 566.508 91.7591 566.508 100.534C566.508 104.523 565.312 107.685 562.918 110.021C560.525 112.357 557.334 113.525 553.346 113.525C548.332 113.525 544.799 111.815 542.747 108.397C541.494 106.345 539.614 105.32 537.107 105.32C535.284 105.32 533.745 105.947 532.492 107.2C531.238 108.454 530.611 109.993 530.611 111.815C530.611 112.955 530.953 114.095 531.637 115.235C536.309 122.755 543.545 126.516 553.346 126.516C560.867 126.516 567.106 124.066 572.063 119.166C577.02 114.266 579.499 108.055 579.499 100.534C579.499 93.013 577.02 86.7737 572.063 81.8164C567.106 76.8592 560.867 74.3809 553.346 74.3809C544.685 74.3809 540.354 70.0503 540.354 61.3891C540.354 52.7288 544.685 48.3982 553.346 48.3982C557.22 48.3982 560.24 49.4241 562.405 51.4749C563.545 52.6144 565.084 53.1839 567.021 53.1839C568.844 53.1839 570.383 52.5576 571.636 51.3037C572.889 50.0504 573.516 48.5118 573.516 46.6889C573.516 44.979 572.833 43.441 571.465 42.0736C566.793 37.6294 560.753 35.4064 553.346 35.4064C545.711 35.4064 539.471 37.8283 534.628 42.6717C529.785 47.515 527.363 53.7538 527.363 61.3891ZM592.491 35.4064C590.667 35.4064 589.128 36.0337 587.875 37.287C586.621 38.5408 585.995 40.0786 585.995 41.9023V120.021C585.995 121.844 586.621 123.383 587.875 124.636C589.128 125.89 590.667 126.516 592.491 126.516C594.313 126.516 595.852 125.89 597.106 124.636C598.359 123.383 598.986 121.844 598.986 120.021V41.9023C598.986 40.0786 598.359 38.5408 597.106 37.287C595.852 36.0337 594.313 35.4064 592.491 35.4064ZM592.491 27.7144C594.313 27.7144 595.852 27.0877 597.106 25.8338C598.359 24.5809 598.986 23.0422 598.986 21.2194C598.986 19.3956 598.359 17.8284 597.106 16.5178C595.852 15.208 594.313 14.5522 592.491 14.5522C590.667 14.5522 589.128 15.208 587.875 16.5178C586.621 17.8284 585.995 19.3956 585.995 21.2194C585.995 23.0422 586.621 24.5809 587.875 25.8338C589.128 27.0877 590.667 27.7144 592.491 27.7144ZM605.482 61.3891V100.534C605.482 108.169 607.903 114.409 612.747 119.251C617.59 124.095 623.829 126.516 631.464 126.516C633.288 126.516 634.826 125.89 636.08 124.636C637.333 123.383 637.96 121.844 637.96 120.021C637.96 118.198 637.333 116.659 636.08 115.405C634.826 114.152 633.288 113.525 631.464 113.525C622.803 113.525 618.472 109.138 618.472 100.363V61.3891C618.472 52.7288 622.803 48.3982 631.464 48.3982C633.288 48.3982 634.826 47.7716 636.08 46.5177C637.333 45.2638 637.96 43.7261 637.96 41.9023C637.96 40.0786 637.333 38.5408 636.08 37.287C634.826 36.0337 633.288 35.4064 631.464 35.4064C623.829 35.4064 617.59 37.8283 612.747 42.6717C607.903 47.515 605.482 53.7538 605.482 61.3891Z" fill="white" fill-opacity="0.75"/>
<path fill-rule="evenodd" clip-rule="evenodd" d="M0.0192052 0.0191834C11.122 -0.316298 22.3331 3.74834 30.8049 12.2192C39.2757 20.6909 43.3388 31.9005 43.003 43.003C31.9012 43.3388 20.6937 39.2732 12.2225 30.8024C3.75079 22.3304 -0.31658 11.121 0.0192052 0.0191834Z" fill="#009949"/>
</svg>
