<svg width="20" height="20" viewBox="0 0 20 20" fill="none" xmlns="http://www.w3.org/2000/svg">
<g clip-path="url(#clip0_897_19090)">
<path fill-rule="evenodd" clip-rule="evenodd" d="M3.71033 14.6662C2.8776 14.6662 2.10469 14.0798 2.01061 13.2524C1.95585 12.7708 2.11669 12.3251 2.40833 11.9993C1.61449 11.1126 2.03549 9.70031 3.17925 9.38869C3.10685 9.20585 3.06675 9.0069 3.06675 8.79905C3.06675 8.06252 3.56728 7.44005 4.246 7.25516C3.80051 6.13017 4.69589 5.06541 5.84554 5.06541L9.33462 5.06541C11.1923 5.06541 12.4638 5.49598 13.4691 5.83637C13.5595 5.86701 13.6479 5.89692 13.7343 5.92572L13.7343 13.929C13.6624 13.9649 13.5923 13.9995 13.5237 14.0334C12.9402 14.3213 12.4656 14.5556 11.92 15.1011C11.0143 16.0069 10.534 18.2332 10.534 19.4666C10.534 19.7614 10.2954 20 10.0006 20L9.56047 20C8.35021 20 7.34798 19.0302 7.33403 17.8199C7.32562 17.0888 7.5153 15.299 7.8687 14.6662L3.71033 14.6662ZM17.4666 14.6661L15.3331 14.6661C15.0385 14.6661 14.7997 14.4273 14.7997 14.1327L14.7997 5.59868C14.7997 5.30409 15.0386 5.06529 15.3331 5.06529L17.4666 5.06529C17.7612 5.06529 18 5.30413 18 5.59868L18 14.1327C18 14.4273 17.7612 14.6661 17.4666 14.6661Z" fill="#888888"/>
</g>
<defs>
<clipPath id="clip0_897_19090">
<rect width="20" height="20" fill="white" transform="translate(20 20) rotate(-180)"/>
</clipPath>
</defs>
</svg>
