<svg width="62" height="22" viewBox="0 0 62 22" fill="none" xmlns="http://www.w3.org/2000/svg">
<rect x="1" y="1" width="60" height="20" rx="10" fill="white" stroke="#797979" stroke-width="2"/>
<path d="M23.1523 14.7852C22.5898 14.7852 22.099 14.6563 21.6797 14.3984C21.2604 14.1406 20.9349 13.7799 20.7031 13.3164C20.4714 12.8529 20.3555 12.3112 20.3555 11.6914C20.3555 11.069 20.4714 10.5247 20.7031 10.0586C20.9349 9.59245 21.2604 9.23047 21.6797 8.97266C22.099 8.71484 22.5898 8.58594 23.1523 8.58594C23.7148 8.58594 24.2057 8.71484 24.625 8.97266C25.0443 9.23047 25.3698 9.59245 25.6016 10.0586C25.8333 10.5247 25.9492 11.069 25.9492 11.6914C25.9492 12.3112 25.8333 12.8529 25.6016 13.3164C25.3698 13.7799 25.0443 14.1406 24.625 14.3984C24.2057 14.6563 23.7148 14.7852 23.1523 14.7852ZM23.1563 13.8047C23.5208 13.8047 23.8229 13.7083 24.0625 13.5156C24.3021 13.3229 24.4792 13.0664 24.5938 12.7461C24.7109 12.4258 24.7695 12.0729 24.7695 11.6875C24.7695 11.3047 24.7109 10.9531 24.5938 10.6328C24.4792 10.3099 24.3021 10.0508 24.0625 9.85547C23.8229 9.66016 23.5208 9.5625 23.1563 9.5625C22.7891 9.5625 22.4844 9.66016 22.2422 9.85547C22.0026 10.0508 21.8242 10.3099 21.707 10.6328C21.5924 10.9531 21.5352 11.3047 21.5352 11.6875C21.5352 12.0729 21.5924 12.4258 21.707 12.7461C21.8242 13.0664 22.0026 13.3229 22.2422 13.5156C22.4844 13.7083 22.7891 13.8047 23.1563 13.8047ZM30.1084 8.66406V9.60156H26.7178V8.66406H30.1084ZM27.6475 14.6641V7.96875C27.6475 7.59375 27.7295 7.28255 27.8936 7.03516C28.0576 6.78516 28.2751 6.59896 28.5459 6.47656C28.8167 6.35156 29.111 6.28906 29.4287 6.28906C29.6631 6.28906 29.8636 6.30859 30.0303 6.34766C30.1969 6.38411 30.3206 6.41797 30.4014 6.44922L30.1279 7.39453C30.0732 7.37891 30.0029 7.36068 29.917 7.33984C29.8311 7.31641 29.7269 7.30469 29.6045 7.30469C29.3206 7.30469 29.1175 7.375 28.9951 7.51562C28.8753 7.65625 28.8154 7.85937 28.8154 8.125V14.6641H27.6475ZM34.1689 8.66406V9.60156H30.7783V8.66406H34.1689ZM31.708 14.6641V7.96875C31.708 7.59375 31.79 7.28255 31.9541 7.03516C32.1182 6.78516 32.3356 6.59896 32.6064 6.47656C32.8773 6.35156 33.1715 6.28906 33.4893 6.28906C33.7236 6.28906 33.9242 6.30859 34.0908 6.34766C34.2575 6.38411 34.3812 6.41797 34.4619 6.44922L34.1885 7.39453C34.1338 7.37891 34.0635 7.36068 33.9775 7.33984C33.8916 7.31641 33.7874 7.30469 33.665 7.30469C33.3812 7.30469 33.1781 7.375 33.0557 7.51562C32.9359 7.65625 32.876 7.85937 32.876 8.125V14.6641H31.708ZM36.542 6.66406V14.6641H35.374V6.66406H36.542ZM38.1133 14.6641V8.66406H39.2813V14.6641H38.1133ZM38.7031 7.73828C38.5 7.73828 38.3255 7.67057 38.1797 7.53516C38.0365 7.39714 37.9648 7.23307 37.9648 7.04297C37.9648 6.85026 38.0365 6.6862 38.1797 6.55078C38.3255 6.41276 38.5 6.34375 38.7031 6.34375C38.9063 6.34375 39.0794 6.41276 39.2227 6.55078C39.3685 6.6862 39.4414 6.85026 39.4414 7.04297C39.4414 7.23307 39.3685 7.39714 39.2227 7.53516C39.0794 7.67057 38.9063 7.73828 38.7031 7.73828ZM42.0205 11.1016V14.6641H40.8525V8.66406H41.9736V9.64062H42.0479C42.1859 9.32292 42.402 9.06771 42.6963 8.875C42.9932 8.68229 43.3669 8.58594 43.8174 8.58594C44.2262 8.58594 44.5843 8.67188 44.8916 8.84375C45.1989 9.01302 45.4372 9.26562 45.6064 9.60156C45.7757 9.9375 45.8604 10.3529 45.8604 10.8477V14.6641H44.6924V10.9883C44.6924 10.5534 44.5791 10.2135 44.3525 9.96875C44.126 9.72135 43.8148 9.59766 43.4189 9.59766C43.1481 9.59766 42.9072 9.65625 42.6963 9.77344C42.488 9.89062 42.3226 10.0625 42.2002 10.2891C42.0804 10.513 42.0205 10.7839 42.0205 11.1016ZM50.0127 14.7852C49.4215 14.7852 48.9124 14.6589 48.4854 14.4062C48.0609 14.151 47.7327 13.793 47.501 13.332C47.2718 12.8685 47.1572 12.3255 47.1572 11.7031C47.1572 11.0885 47.2718 10.5469 47.501 10.0781C47.7327 9.60937 48.0557 9.24349 48.4697 8.98047C48.8864 8.71745 49.3734 8.58594 49.9307 8.58594C50.2692 8.58594 50.5973 8.64193 50.915 8.75391C51.2327 8.86589 51.5179 9.04167 51.7705 9.28125C52.0231 9.52083 52.2223 9.83203 52.3682 10.2148C52.514 10.5951 52.5869 11.0573 52.5869 11.6016V12.0156H47.8174V11.1406H51.4424C51.4424 10.8333 51.3799 10.5612 51.2549 10.3242C51.1299 10.0846 50.9541 9.89583 50.7275 9.75781C50.5036 9.61979 50.2406 9.55078 49.9385 9.55078C49.6104 9.55078 49.3239 9.63151 49.0791 9.79297C48.8369 9.95182 48.6494 10.1602 48.5166 10.418C48.3864 10.6732 48.3213 10.9505 48.3213 11.25V11.9336C48.3213 12.3346 48.3916 12.6758 48.5322 12.957C48.6755 13.2383 48.8747 13.4531 49.1299 13.6016C49.3851 13.7474 49.6833 13.8203 50.0244 13.8203C50.2458 13.8203 50.4476 13.7891 50.6299 13.7266C50.8122 13.6615 50.9697 13.5651 51.1025 13.4375C51.2354 13.3099 51.3369 13.1523 51.4072 12.9648L52.5127 13.1641C52.4242 13.4896 52.2653 13.7747 52.0361 14.0195C51.8096 14.2617 51.5244 14.4505 51.1807 14.5859C50.8395 14.7188 50.4502 14.7852 50.0127 14.7852Z" fill="#333333"/>
<ellipse cx="11.1595" cy="11.0026" rx="3.72" ry="3.66667" fill="#D9D9D9"/>
</svg>
