<svg width="62" height="22" viewBox="0 0 62 22" fill="none" xmlns="http://www.w3.org/2000/svg">
<g clip-path="url(#clip0_1_6)">
<path d="M51 1H11C5.47715 1 1 5.47715 1 11C1 16.5228 5.47715 21 11 21H51C56.5228 21 61 16.5228 61 11C61 5.47715 56.5228 1 51 1Z" fill="white" stroke="#797979" stroke-width="2"/>
<path d="M11.1595 14.6693C13.214 14.6693 14.8795 13.0277 14.8795 11.0026C14.8795 8.97756 13.214 7.33594 11.1595 7.33594C9.10502 7.33594 7.43951 8.97756 7.43951 11.0026C7.43951 13.0277 9.10502 14.6693 11.1595 14.6693Z" fill="#D9D9D9"/>
<path d="M20.3818 11.7183C20.3818 10.614 20.6888 9.79604 21.3027 9.26447C21.8156 8.82273 22.4408 8.60187 23.1782 8.60187C23.998 8.60187 24.6681 8.8714 25.1885 9.41046C25.7088 9.94578 25.969 10.687 25.969 11.6341C25.969 12.4015 25.8529 13.0061 25.6208 13.4478C25.3925 13.8858 25.0575 14.2265 24.6157 14.4698C24.1777 14.7131 23.6986 14.8348 23.1782 14.8348C22.3434 14.8348 21.6677 14.5671 21.1511 14.0318C20.6383 13.4965 20.3818 12.7253 20.3818 11.7183ZM21.4207 11.7183C21.4207 12.482 21.5872 13.0547 21.9204 13.4366C22.2536 13.8147 22.6729 14.0037 23.1782 14.0037C23.6799 14.0037 24.0972 13.8128 24.4304 13.431C24.7636 13.0491 24.9302 12.467 24.9302 11.6846C24.9302 10.9472 24.7617 10.3894 24.4248 10.0113C24.0916 9.62946 23.6761 9.43854 23.1782 9.43854C22.6729 9.43854 22.2536 9.62758 21.9204 10.0057C21.5872 10.3838 21.4207 10.9547 21.4207 11.7183ZM27.1594 14.7V8.73663H28.0691V9.58453C28.5071 8.92942 29.1397 8.60187 29.967 8.60187C30.3264 8.60187 30.6558 8.66738 30.9553 8.7984C31.2585 8.92568 31.485 9.09414 31.6348 9.30377C31.7845 9.51341 31.8893 9.76235 31.9492 10.0506C31.9867 10.2378 32.0054 10.5653 32.0054 11.0333V14.7H30.9946V11.0726C30.9946 10.6608 30.9553 10.3538 30.8767 10.1517C30.7981 9.94578 30.6577 9.78294 30.4556 9.66315C30.2572 9.53961 30.0232 9.47784 29.7537 9.47784C29.3232 9.47784 28.9507 9.61448 28.6362 9.88776C28.3255 10.161 28.1702 10.6795 28.1702 11.4432V14.7H27.1594ZM33.5383 14.7V6.46808H34.5491V14.7H33.5383ZM36.127 7.63043V6.46808H37.1377V7.63043H36.127ZM36.127 14.7V8.73663H37.1377V14.7H36.127ZM38.6819 14.7V8.73663H39.5916V9.58453C40.0295 8.92942 40.6622 8.60187 41.4895 8.60187C41.8489 8.60187 42.1783 8.66738 42.4778 8.7984C42.781 8.92568 43.0075 9.09414 43.1572 9.30377C43.307 9.51341 43.4118 9.76235 43.4717 10.0506C43.5091 10.2378 43.5278 10.5653 43.5278 11.0333V14.7H42.5171V11.0726C42.5171 10.6608 42.4778 10.3538 42.3992 10.1517C42.3206 9.94578 42.1802 9.78294 41.978 9.66315C41.7796 9.53961 41.5457 9.47784 41.2761 9.47784C40.8456 9.47784 40.4731 9.61448 40.1587 9.88776C39.848 10.161 39.6926 10.6795 39.6926 11.4432V14.7H38.6819ZM49.1655 12.7796L50.21 12.9088C50.0452 13.5189 49.7402 13.9925 49.2947 14.3294C48.8492 14.6663 48.2802 14.8348 47.5876 14.8348C46.7154 14.8348 46.0229 14.5671 45.51 14.0318C45.0009 13.4927 44.7463 12.7384 44.7463 11.7689C44.7463 10.7656 45.0046 9.98696 45.5212 9.43292C46.0378 8.87889 46.7079 8.60187 47.5315 8.60187C48.3289 8.60187 48.9802 8.87327 49.4856 9.41608C49.991 9.95888 50.2437 10.7226 50.2437 11.7071C50.2437 11.767 50.2418 11.8568 50.238 11.9766H45.7908C45.8282 12.6317 46.0135 13.1334 46.3467 13.4815C46.6799 13.8297 47.0954 14.0037 47.5933 14.0037C47.9639 14.0037 48.2802 13.9064 48.5422 13.7117C48.8043 13.5171 49.012 13.2064 49.1655 12.7796ZM45.8469 11.1456H49.1768C49.1318 10.6439 49.0046 10.2677 48.7949 10.0169C48.473 9.62758 48.0556 9.43292 47.5427 9.43292C47.0785 9.43292 46.6873 9.58828 46.3691 9.89899C46.0547 10.2097 45.8806 10.6252 45.8469 11.1456Z" fill="#333333"/>
</g>
<defs>
<clipPath id="clip0_1_6">
<rect width="62" height="22" fill="white"/>
</clipPath>
</defs>
</svg>
