<svg width="20" height="20" viewBox="0 0 20 20" fill="none" xmlns="http://www.w3.org/2000/svg">
<g clip-path="url(#clip0_897_19094)">
<path fill-rule="evenodd" clip-rule="evenodd" d="M16.2897 5.33378C17.1224 5.33378 17.8953 5.92023 17.9894 6.74764C18.0441 7.22919 17.8833 7.67485 17.5917 8.00067C18.3855 8.88742 17.9645 10.2997 16.8208 10.6113C16.8931 10.7941 16.9333 10.9931 16.9333 11.201C16.9333 11.9375 16.4327 12.5599 15.754 12.7448C16.1995 13.8698 15.3041 14.9346 14.1545 14.9346H10.6654C8.80772 14.9346 7.53619 14.504 6.53094 14.1636C6.44045 14.133 6.35213 14.1031 6.26573 14.0743L6.26573 6.07098C6.33762 6.03505 6.40771 6.00046 6.4763 5.96661C7.05976 5.67866 7.53444 5.44439 8.07997 4.89887C8.98574 3.99306 9.46601 1.7668 9.46601 0.533392C9.46601 0.238554 9.7046 0 9.9994 0L10.4395 0C11.6498 0 12.652 0.96983 12.666 2.18006C12.6744 2.91119 12.4847 4.70098 12.1313 5.33378L16.2897 5.33378ZM2.53339 5.33393H4.66693C4.96152 5.33393 5.20028 5.57273 5.20028 5.86729L5.20028 14.4013C5.20028 14.6959 4.96144 14.9347 4.66689 14.9347H2.53339C2.2388 14.9347 2 14.6959 2 14.4013L2 5.86732C2 5.57273 2.23884 5.33393 2.53339 5.33393Z" fill="#888888"/>
</g>
<defs>
<clipPath id="clip0_897_19094">
<rect width="20" height="20" fill="white"/>
</clipPath>
</defs>
</svg>
