<svg width="20" height="20" viewBox="0 0 20 20" fill="none" xmlns="http://www.w3.org/2000/svg">
<path d="M9.58633 0.269741C9.75554 -0.0899134 10.2445 -0.089914 10.4137 0.269741L13.1465 6.07814C13.2137 6.22096 13.3436 6.31995 13.4938 6.34285L19.6045 7.27427C19.9829 7.33195 20.134 7.8197 19.8602 8.09965L15.4384 12.6209C15.3297 12.732 15.2801 12.8922 15.3058 13.0492L16.3496 19.4332C16.4142 19.8285 16.0187 20.13 15.6803 19.9433L10.2147 16.9292C10.0803 16.8551 9.91972 16.8551 9.78533 16.9292L4.31974 19.9433C3.98131 20.13 3.58577 19.8285 3.65041 19.4332L4.69424 13.0492C4.71991 12.8922 4.6703 12.732 4.56157 12.6209L0.139814 8.09966C-0.13398 7.8197 0.0171022 7.33195 0.395476 7.27427L6.5062 6.34285C6.65645 6.31995 6.78634 6.22096 6.85353 6.07814L9.58633 0.269741Z" fill="white"/>
</svg>
