<svg width="20" height="20" viewBox="0 0 20 20" fill="none" xmlns="http://www.w3.org/2000/svg">
<path d="M7.64528 6.45065L10 1.44583L12.3547 6.45065L13.1465 6.07814L12.3547 6.45065C12.5403 6.84519 12.9104 7.13903 13.362 7.20786L18.7111 8.02319L14.8129 12.0091C14.5044 12.3244 14.3729 12.7663 14.4422 13.1904L15.3535 18.7639L10.6372 16.163C10.2398 15.9438 9.7602 15.9438 9.36278 16.163L4.64646 18.7639L5.55777 13.1904C5.62712 12.7663 5.49558 12.3244 5.18713 12.0091L1.28894 8.02319L6.63804 7.20786C7.08962 7.13903 7.45965 6.84519 7.64528 6.45065ZM19.2346 7.48785L19.2343 7.48822L19.2346 7.48785Z" stroke="white" stroke-width="1.75"/>
</svg>
